<svg width="594" height="132" viewBox="0 0 594 132" fill="none" stroke="white" xmlns="http://www.w3.org/2000/svg">
<path d="M133.576 29.4797C128.877 29.4797 124.673 30.4602 121.087 32.2067C119.139 33.1566 117.408 34.2904 115.893 35.6386C114.595 36.7723 112.555 35.8224 112.555 34.1065V10.2062C112.555 9.10308 111.658 8.18384 110.514 8.18384H93.6977C92.5849 8.18384 91.6575 9.07244 91.6575 10.2062V95.7572C91.6575 96.8602 92.554 97.7795 93.6977 97.7795H110.514C111.627 97.7795 112.555 96.8909 112.555 95.7572V61.071C112.555 51.8786 117.686 46.7921 125.631 46.7921C133.576 46.7921 138.707 51.8786 138.707 61.071V95.7572C138.707 96.8602 139.604 97.7795 140.748 97.7795H157.441C158.553 97.7795 159.481 96.8909 159.481 95.7572V58.2826C159.481 40.1122 149.094 29.4797 133.576 29.4797Z" fill="black"/>
<path d="M218.401 32.2067V34.1371C218.401 35.9143 216.268 36.8029 214.97 35.6079C210.92 31.8084 204.985 29.2345 197.38 29.2345C180.656 29.2345 167.333 42.5635 167.333 63.8594C167.333 85.1552 180.656 98.7294 197.257 98.7294C202.326 98.7294 206.654 97.565 210.209 95.6959C212.002 94.746 213.61 93.5816 214.97 92.2947C216.268 91.0997 218.37 91.9883 218.37 93.7655V95.7572C218.37 96.8602 219.267 97.7795 220.411 97.7795H237.227C238.34 97.7795 239.268 96.8909 239.268 95.7572V32.2067C239.268 31.1036 238.371 30.1844 237.227 30.1844H220.411C219.329 30.1844 218.401 31.1036 218.401 32.2067ZM203.501 80.6815C195.68 80.6815 188.601 74.6145 188.601 63.8594C188.601 53.0736 195.68 47.2823 203.501 47.2823C211.446 47.2823 218.401 53.2268 218.401 63.9819C218.401 74.7677 211.446 80.6815 203.501 80.6815Z" fill="black"/>
<path d="M282.608 80.1913C277.971 80.1913 276.24 78.506 276.24 74.492V49.3966C276.24 48.2935 277.136 47.3743 278.28 47.3743H287.894C289.007 47.3743 289.934 46.4857 289.934 45.3519V32.2067C289.934 31.1036 289.038 30.1844 287.894 30.1844H278.28C277.167 30.1844 276.24 29.2958 276.24 28.1621V16.8247C276.24 15.3539 274.725 14.404 273.396 14.9862L256.579 22.2789C255.837 22.616 255.373 23.3207 255.373 24.1174V28.1621C255.373 29.2652 254.477 30.1844 253.333 30.1844H249.098C247.985 30.1844 247.058 31.073 247.058 32.2067V45.3519C247.058 46.455 247.954 47.3743 249.098 47.3743H253.333C254.446 47.3743 255.373 48.2629 255.373 49.3966V74.2468C255.373 91.8044 265.266 97.7488 279.455 97.7488H288.049C289.162 97.7488 290.089 96.8602 290.089 95.7265V82.2136C290.089 81.1105 289.192 80.1913 288.049 80.1913H282.608Z" fill="black"/>
<path d="M316.674 49.8256C316.674 46.5469 319.364 44.6165 324.248 44.6165C327.185 44.6165 329.534 45.3519 331.234 46.7001C332.564 47.7419 333.491 49.1515 333.986 50.8367C334.233 51.6947 335.037 52.2462 335.902 52.2462H351.204C352.503 52.2462 353.43 51.0819 353.214 49.8256C350.988 37.7835 341.343 29.2345 324.866 29.2345C307.029 29.2345 297.137 38.6721 297.137 50.1933C297.137 75.0129 334.264 67.138 334.264 78.0464C334.264 81.0799 331.451 83.5006 326.072 83.5006C323.197 83.5006 320.693 82.7039 318.838 81.3557C317.385 80.2832 316.334 78.8124 315.84 77.0965C315.592 76.2385 314.789 75.6257 313.892 75.6257H297.23C295.962 75.6257 294.973 76.7594 295.22 78.0157C297.415 89.9046 309.224 98.76 326.288 98.76C343.414 98.76 353.894 89.9353 353.894 78.1689C353.554 52.951 316.674 60.5807 316.674 49.8256Z" fill="black"/>
<path d="M363.384 32.2067V95.7571C363.384 96.8602 364.281 97.7795 365.424 97.7795H382.241C383.354 97.7795 384.281 96.8909 384.281 95.7571V32.2067C384.281 31.1036 383.385 30.1844 382.241 30.1844H365.424C364.311 30.1844 363.384 31.1036 363.384 32.2067ZM373.895 0.768555C366.444 0.768555 361.437 5.73247 361.437 12.0446C361.437 18.2342 366.444 23.1981 373.895 23.1981C381.221 23.1981 386.229 18.2342 386.229 12.0446C386.229 5.73247 381.221 0.768555 373.895 0.768555Z" fill="black"/>
<path d="M443.542 32.2067V34.1065C443.542 35.8837 441.409 36.7723 440.11 35.5773C436.03 31.7777 430.033 29.2345 422.521 29.2345C405.797 29.2345 392.473 42.5635 392.473 63.8594C392.473 85.1552 405.797 98.7294 422.521 98.7294C430.064 98.7294 436.03 96.0636 440.11 92.2028C441.409 90.9771 443.542 91.8963 443.542 93.6736V97.6569C443.542 109.025 437.297 113.162 429.383 113.162C425.767 113.162 422.706 112.334 420.357 110.894C418.626 109.822 417.265 108.381 416.431 106.696C415.936 105.716 414.792 105.225 413.772 105.685L399.058 112.089C397.976 112.549 397.543 113.836 398.068 114.908C403.324 125.081 414.762 131.117 430.404 131.117C453.99 131.117 464.501 115.735 464.501 97.6876V32.2067C464.501 31.1036 463.604 30.1844 462.46 30.1844H445.644C444.438 30.1844 443.542 31.1036 443.542 32.2067ZM428.642 80.6816C420.82 80.6816 413.741 74.6145 413.741 63.8594C413.741 53.0736 420.82 47.2823 428.642 47.2823C436.586 47.2823 443.542 53.2268 443.542 63.9819C443.542 74.7677 436.555 80.6816 428.642 80.6816Z" fill="black"/>
<path d="M518.753 29.4797C514.055 29.4797 509.85 30.4602 506.264 32.2067C504.317 33.1566 502.586 34.2904 501.071 35.6386C499.773 36.7723 497.732 35.8224 497.732 34.1065V10.2062C497.732 9.10308 496.836 8.18384 495.692 8.18384H478.875C477.763 8.18384 476.835 9.07244 476.835 10.2062V95.7572C476.835 96.8602 477.732 97.7795 478.875 97.7795H495.692C496.805 97.7795 497.732 96.8909 497.732 95.7572V61.071C497.732 51.8786 502.864 46.7921 510.809 46.7921C518.753 46.7921 523.885 51.8786 523.885 61.071V95.7572C523.885 96.8602 524.781 97.7795 525.925 97.7795H542.618C543.731 97.7795 544.659 96.8909 544.659 95.7572V58.2826C544.659 40.1122 534.272 29.4797 518.753 29.4797Z" fill="black"/>
<path d="M585.958 80.1913C581.321 80.1913 579.621 78.506 579.621 74.492V49.3966C579.621 48.2935 580.518 47.3743 581.661 47.3743H591.275C592.388 47.3743 593.316 46.4857 593.316 45.3519V32.2067C593.316 31.1036 592.419 30.1844 591.275 30.1844H581.661C580.549 30.1844 579.621 29.2958 579.621 28.1621V16.8247C579.621 15.3539 578.107 14.404 576.777 14.9862L559.96 22.3095C559.219 22.6466 558.755 23.3514 558.755 24.148V28.1927C558.755 29.2958 557.858 30.215 556.715 30.215H552.479C551.367 30.215 550.439 31.1036 550.439 32.2374V45.3826C550.439 46.4857 551.336 47.4049 552.479 47.4049H556.715C557.827 47.4049 558.755 48.2935 558.755 49.4272V74.2775C558.755 91.835 568.647 97.7795 582.836 97.7795H591.43C592.543 97.7795 593.47 96.8909 593.47 95.7571V82.2443C593.47 81.1412 592.574 80.2219 591.43 80.2219H585.958V80.1913Z" fill="black"/>
<path d="M82.1671 68.6701C83.0945 69.0684 83.62 70.1102 83.3109 71.0907C77.932 88.4951 62.8773 99.0358 43.1238 99.0358C19.4135 99.0358 0 79.8236 0 55.8313C0 31.5632 16.2603 14.0976 39.7543 12.6268C40.929 12.5655 41.8873 13.4848 41.8873 14.6491V29.6022C41.8873 30.6133 41.0836 31.4407 40.0634 31.5326C28.7801 32.8195 21.2373 41.9507 21.2373 55.8313C21.2373 70.815 30.0476 80.2832 42.8456 80.2832C50.7903 80.2832 57.2511 76.6368 60.8061 69.3748C61.8572 67.138 62.29 64.8092 62.4445 63.0627C62.5682 61.6838 64.0211 60.8258 65.2886 61.3774L82.1671 68.6701Z" fill="black"/>
<path d="M83.8054 14.496V40.9702C83.8054 41.7669 83.3417 42.5023 82.5998 42.8087L73.2331 46.884L65.443 50.2546C64.0828 50.8368 62.599 49.8563 62.599 48.4161V44.2795C62.599 43.1764 61.7025 42.2572 60.5587 42.2572H52.7068C51.5939 42.2572 50.6665 41.3686 50.6665 40.2348V14.5573C50.6665 13.4542 51.563 12.5349 52.7068 12.5349L81.796 12.5043C82.878 12.4736 83.8054 13.3929 83.8054 14.496Z" fill="black"/>
</svg>
