<svg width="25" height="25" viewBox="0 0 25 25" fill="none" xmlns="http://www.w3.org/2000/svg">
<rect width="25" height="25" rx="3" fill="#8A9CFF"/>
<rect x="4" y="4" width="18" height="18" fill="white"/>
<path d="M21.3057 1H3.69429C2.20914 1 1 2.19955 1 3.68594V21.3141C1 22.8005 2.20914 24 3.69429 24H18.5983L17.9017 21.5879L19.584 23.1395L21.3057 24H24V3.68594C24 2.19955 22.7909 1 21.3057 1ZM16.2326 18.0283C16.2326 18.0283 15.7594 17.4677 15.3651 16.9722C17.0869 16.4898 17.744 15.4206 17.744 15.4206C17.2051 15.7727 16.6926 16.0204 16.2326 16.1899C15.5754 16.4637 14.9446 16.6463 14.3269 16.7506C13.0651 16.9853 11.9086 16.9201 10.9229 16.7375C10.1737 16.5941 9.52971 16.3855 8.99086 16.1769C8.68857 16.0595 8.36 15.9161 8.03143 15.7336C7.992 15.7075 7.95257 15.6944 7.91314 15.6684C7.88686 15.6553 7.87371 15.6423 7.86057 15.6293C7.624 15.4989 7.49257 15.4076 7.49257 15.4076C7.49257 15.4076 8.12343 16.4507 9.79257 16.9461C9.39829 17.4416 8.912 18.0283 8.912 18.0283C6.00743 17.9371 4.90343 16.0465 4.90343 16.0465C4.90343 11.8481 6.796 8.44501 6.796 8.44501C8.68857 7.03685 10.4891 7.07596 10.4891 7.07596L10.6206 7.23243C8.25486 7.91043 7.164 8.94048 7.164 8.94048C7.164 8.94048 7.45314 8.78401 7.93943 8.56236C9.34571 7.94955 10.4629 7.78005 10.9229 7.74093C11.0017 7.72789 11.0674 7.71485 11.1463 7.71485C11.948 7.61054 12.8549 7.58447 13.8011 7.68878C15.0497 7.8322 16.3903 8.19728 17.7571 8.94048C17.7571 8.94048 16.7189 7.96259 14.4846 7.28458L14.6686 7.07596C14.6686 7.07596 16.4691 7.03685 18.3617 8.44501C18.3617 8.44501 20.2543 11.8481 20.2543 16.0465C20.2543 16.0465 19.1371 17.9371 16.2326 18.0283ZM10.1211 11.9393C9.372 11.9393 8.78057 12.5913 8.78057 13.3866C8.78057 14.182 9.38514 14.8339 10.1211 14.8339C10.8703 14.8339 11.4617 14.182 11.4617 13.3866C11.4749 12.5913 10.8703 11.9393 10.1211 11.9393ZM14.9183 11.9393C14.1691 11.9393 13.5777 12.5913 13.5777 13.3866C13.5777 14.182 14.1823 14.8339 14.9183 14.8339C15.6674 14.8339 16.2589 14.182 16.2589 13.3866C16.2589 12.5913 15.6674 11.9393 14.9183 11.9393Z" fill="#8A9CFF"/>
</svg>
